<svg width="108" height="32" fill="none" xmlns="http://www.w3.org/2000/svg"><path d="M13.2 2.68h5.16L30.68 31h-7.04l-2.44-6h-11l-2.36 6H.96L13.2 2.68zm2.4 8.24l-3.44 8.8h6.92l-3.48-8.8zM32.848.76h6V31h-6V.76zm10.391 10.8h6V31h-6V11.56zm-.48-6.12c0-.96.333-1.773 1-2.44.693-.693 1.52-1.04 2.48-1.04s1.773.347 2.44 1.04a3.256 3.256 0 011.04 2.44c0 .96-.347 1.787-1.04 2.48-.667.667-1.48 1-2.44 1s-1.787-.333-2.48-1c-.667-.693-1-1.52-1-2.48zm8.75 6.12h6.48l4.92 13.2h.08l4.56-13.2h6.04L65.91 31h-6.36l-8.04-19.44zm24.347 0h6V31h-6V11.56zm-.48-6.12c0-.96.334-1.773 1-2.44.694-.693 1.52-1.04 2.48-1.04s1.774.347 2.44 1.04a3.256 3.256 0 011.04 2.44c0 .96-.346 1.787-1.04 2.48-.666.667-1.48 1-2.44 1s-1.786-.333-2.48-1c-.666-.693-1-1.52-1-2.48zm10.07 15.84c0-1.547.28-2.947.84-4.2a9.588 9.588 0 012.28-3.2c.987-.907 2.134-1.6 3.44-2.08 1.334-.48 2.748-.72 4.24-.72 1.494 0 2.894.24 4.201.72 1.333.48 2.48 1.173 3.44 2.08a9.325 9.325 0 012.32 3.2c.56 1.253.84 2.653.84 4.2 0 1.547-.28 2.947-.84 4.2a9.745 9.745 0 01-2.32 3.24c-.96.88-2.107 1.56-3.44 2.04-1.307.48-2.707.72-4.2.72-1.493 0-2.907-.24-4.24-.72a10.603 10.603 0 01-3.44-2.04 10.033 10.033 0 01-2.28-3.24c-.56-1.253-.84-2.653-.84-4.2zm6 0c0 1.467.414 2.653 1.24 3.56.854.907 2.04 1.36 3.56 1.36s2.694-.453 3.52-1.36c.854-.907 1.281-2.093 1.281-3.56s-.427-2.653-1.28-3.56c-.827-.907-2-1.36-3.52-1.36s-2.707.453-3.56 1.36c-.827.907-1.24 2.093-1.24 3.56z" fill="#fff"/></svg>